<?xml version="1.0" standalone="no"?>
<!DOCTYPE svg PUBLIC "-//W3C//DTD SVG 20010904//EN"
 "http://www.w3.org/TR/2001/REC-SVG-20010904/DTD/svg10.dtd">
<svg version="1.0" xmlns="http://www.w3.org/2000/svg"
 width="879.000000pt" height="876.000000pt" viewBox="0 0 879.000000 876.000000"
 preserveAspectRatio="xMidYMid meet">

<g transform="translate(0.000000,876.000000) scale(0.100000,-0.100000)"
fill="#000000" stroke="none">
<path d="M4090 8749 c-445 -32 -892 -134 -1332 -305 -129 -50 -491 -229 -623
-309 -492 -297 -916 -678 -1255 -1130 -467 -622 -757 -1346 -849 -2120 -121
-1013 129 -2057 696 -2913 300 -452 686 -850 1133 -1169 311 -221 744 -441
1120 -568 630 -213 1325 -284 1960 -199 509 68 922 189 1355 398 455 220 827
479 1168 815 789 774 1242 1759 1317 2859 56 828 -144 1696 -558 2422 -288
505 -655 930 -1126 1303 -225 178 -458 323 -761 472 -373 184 -677 286 -1110
374 -346 70 -770 96 -1135 70z m2986 -1155 l22 -6 -22 -49 c-20 -46 -23 -49
-51 -42 -38 8 -45 8 -76 0 -26 -7 -26 -6 -19 33 10 57 25 70 79 70 25 0 56 -3
67 -6z m-2058 -690 c9 -11 18 -24 19 -29 6 -40 4 -84 -6 -108 -6 -16 -11 -32
-11 -36 0 -12 -48 -31 -80 -31 -44 0 -75 18 -89 53 -23 56 -18 108 16 147 25
30 30 32 80 28 36 -3 59 -11 71 -24z m2478 -359 c46 -30 50 -130 6 -167 -26
-23 -68 -30 -110 -19 -53 15 -72 41 -72 101 0 40 5 55 28 80 25 27 31 30 76
25 27 -2 59 -11 72 -20z m-1024 -616 c163 -52 281 -188 309 -355 17 -95 -1
-200 -51 -303 -34 -70 -70 -118 -70 -93 0 6 5 12 12 14 8 3 8 10 -4 26 -8 12
-18 19 -21 16 -4 -4 -5 3 -2 15 3 16 -5 26 -34 41 -21 10 -41 27 -45 36 -4 11
-13 14 -27 11 -18 -5 -20 -2 -15 16 35 118 31 189 -16 285 -31 63 -113 144
-171 170 -115 51 -262 54 -365 7 -31 -14 -64 -31 -72 -38 -9 -7 2 5 24 26 51
48 202 123 286 142 77 17 179 11 262 -16z m-3075 -114 c41 -27 23 -87 -31
-105 -71 -23 -146 21 -126 75 20 53 98 68 157 30z m-1581 -171 c46 -45 14
-104 -56 -104 -72 0 -101 50 -59 104 28 35 80 36 115 0z m3610 -89 c4 -8 1
-22 -6 -30 -7 -8 -9 -15 -4 -15 5 0 1 -5 -9 -11 -34 -20 -88 37 -60 64 13 14
74 7 79 -8z m-4958 -219 c24 -21 35 -71 22 -97 -33 -60 -173 -67 -217 -10 -22
28 -14 62 22 98 34 34 38 35 95 31 37 -3 66 -11 78 -22z m7330 -218 c19 -16
14 -56 -7 -68 -63 -33 -169 27 -118 68 27 22 96 22 125 0z m-5073 -58 c71 -18
141 -49 197 -88 l28 -18 -76 -115 c-42 -63 -80 -118 -84 -123 -5 -5 -25 8 -46
28 -62 60 -137 91 -220 91 -83 0 -114 -18 -114 -67 0 -65 12 -72 212 -122 150
-38 215 -67 267 -118 54 -52 75 -110 75 -203 0 -97 -22 -154 -86 -218 -139
-138 -441 -167 -696 -66 -77 31 -158 74 -168 90 -5 8 172 239 183 239 3 0 28
-18 55 -40 115 -91 249 -131 331 -97 44 19 63 57 45 90 -18 35 -38 45 -118 62
-320 70 -440 166 -440 356 0 65 5 85 30 137 33 65 86 119 147 151 120 61 312
73 478 31z m1044 4 c86 -19 165 -66 208 -122 58 -77 63 -110 63 -461 1 -273 6
-397 21 -461 3 -13 -21 -15 -168 -18 l-173 -2 -1 32 c-1 18 -4 46 -8 61 l-6
28 -63 -50 c-79 -63 -147 -86 -262 -86 -116 0 -179 23 -245 89 -64 64 -90 137
-83 231 6 71 44 152 91 191 80 67 212 114 397 140 191 26 170 16 170 84 0 48
-5 64 -24 86 -20 24 -32 28 -87 32 -63 3 -67 2 -200 -67 l-136 -70 -25 27
c-56 61 -139 173 -134 181 10 15 117 83 180 114 33 16 90 35 126 42 93 19 277
18 359 -1z m1222 0 c94 -28 149 -78 197 -181 l27 -58 3 -413 3 -412 -163 2
-163 3 -1 326 c-1 334 -6 380 -43 423 -66 76 -206 54 -255 -39 -20 -38 -21
-60 -26 -375 l-5 -335 -165 0 -165 0 0 525 0 525 158 3 157 3 0 -71 0 -70 41
45 c76 83 149 113 275 114 39 1 95 -6 125 -15z m770 -71 c0 -38 0 -324 -1
-636 l-1 -568 -25 -79 c-13 -44 -39 -99 -57 -122 -38 -49 -112 -103 -165 -118
-61 -18 -220 -22 -307 -8 l-80 13 -3 148 c-1 81 -1 147 1 147 3 0 24 -7 48
-16 24 -8 70 -15 101 -16 79 -1 118 23 140 87 15 45 17 110 18 636 0 322 3
589 7 592 3 4 78 7 165 7 l158 0 1 -67z m1388 -319 c24 -22 -4 -44 -58 -44
-58 0 -92 20 -72 43 22 28 101 28 130 1z m831 -209 c25 -23 26 -61 1 -75 -33
-17 -116 -12 -141 8 -28 23 -22 63 12 80 31 16 105 8 128 -13z m-7045 -75 c7
-12 -69 -49 -101 -50 -28 0 -69 33 -60 48 4 7 28 18 54 26 40 11 51 11 74 0
15 -8 30 -18 33 -24z m7535 -74 c0 -3 -4 -8 -10 -11 -5 -3 -10 -1 -10 4 0 6 5
11 10 11 6 0 10 -2 10 -4z m-440 -147 c0 -25 -33 -22 -38 4 -2 12 3 17 17 17
15 0 21 -6 21 -21z m-780 -59 c0 -5 -2 -10 -4 -10 -3 0 -8 5 -11 10 -3 6 -1
10 4 10 6 0 11 -4 11 -10z m261 -93 c-18 -75 -26 -95 -36 -86 -5 5 29 141 40
159 15 24 14 1 -4 -73z m-5386 -117 c3 -5 1 -10 -4 -10 -6 0 -11 5 -11 10 0 6
2 10 4 10 3 0 8 -4 11 -10z m6075 -2 c0 -4 -9 -8 -21 -8 -11 0 -18 4 -15 8 3
5 12 9 21 9 8 0 15 -4 15 -9z m-885 -8 c3 -6 -1 -7 -9 -4 -18 7 -21 14 -7 14
6 0 13 -4 16 -10z m-6275 -25 c0 -8 -4 -15 -10 -15 -5 0 -10 7 -10 15 0 8 5
15 10 15 6 0 10 -7 10 -15z m6102 -10 c20 -3 101 -33 180 -66 79 -34 215 -92
303 -130 88 -38 154 -69 147 -69 -7 0 -128 49 -270 109 -141 60 -280 119 -309
130 -47 18 -76 20 -288 22 -237 1 -237 1 -287 -25 -52 -27 -80 -34 -61 -15 5
5 37 21 69 34 58 24 63 25 269 20 116 -3 227 -8 247 -10z m478 6 c0 -6 -4 -13
-10 -16 -5 -3 -10 1 -10 9 0 9 5 16 10 16 6 0 10 -4 10 -9z m-170 -26 c14 -8
21 -14 15 -14 -5 0 -21 6 -35 14 -14 8 -20 14 -15 14 6 0 21 -6 35 -14z
m-5800 -5 c-8 -5 -19 -10 -25 -10 -5 0 -3 5 5 10 8 5 20 10 25 10 6 0 3 -5 -5
-10z m6040 -6 l25 -15 -25 7 c-14 3 -29 10 -34 15 -16 14 6 10 34 -7z m-6095
-14 c-3 -5 -14 -10 -23 -10 -15 0 -15 2 -2 10 20 13 33 13 25 0z m281 -26 c35
-20 64 -38 64 -41 0 -4 -126 62 -139 73 -17 14 21 -2 75 -32z m-826 11 c0 -8
-7 -15 -15 -15 -8 0 -15 7 -15 15 0 8 7 15 15 15 8 0 15 -7 15 -15z m500 1 c0
-7 -162 -68 -166 -63 -2 2 31 17 73 34 82 32 93 36 93 29z m1480 -16 c50 -26
57 -38 33 -62 -20 -19 -20 -19 -54 1 -76 47 -158 3 -159 -85 0 -84 73 -125
153 -85 41 21 42 21 61 1 16 -16 17 -21 6 -35 -24 -29 -68 -45 -123 -45 -111
0 -184 92 -163 204 8 43 49 94 91 112 44 19 110 17 155 -6z m579 0 c110 -56
114 -226 7 -291 -45 -28 -133 -26 -177 4 -52 35 -79 82 -79 139 0 62 20 101
72 138 50 37 118 41 177 10z m567 1 c58 -35 65 -111 14 -166 -17 -20 -17 -22
21 -83 l38 -63 -41 3 c-39 3 -44 7 -73 55 -22 39 -36 53 -52 53 -21 0 -23 -5
-23 -55 0 -54 0 -55 -30 -55 l-30 0 0 165 0 165 73 0 c53 0 80 -5 103 -19z
m551 -7 c84 -63 30 -194 -79 -194 l-38 0 0 -56 0 -55 -32 3 -33 3 -3 164 -3
163 80 -3 c61 -3 86 -9 108 -25z m2858 -2 c-3 -3 -11 0 -18 7 -9 10 -8 11 6 5
10 -3 15 -9 12 -12z m246 -7 c30 -14 43 -22 29 -19 -26 7 -100 43 -89 44 4 0
31 -11 60 -25z m-139 -31 c38 -15 66 -29 64 -31 -4 -5 -147 54 -156 64 -6 7 5
4 92 -33z m238 -9 c17 -9 30 -18 30 -21 0 -4 -59 23 -69 32 -10 9 13 3 39 -11z
m-6570 -5 c-8 -5 -19 -10 -25 -10 -5 0 -3 5 5 10 8 5 20 10 25 10 6 0 3 -5 -5
-10z m-110 -40 c-8 -5 -19 -10 -25 -10 -5 0 -3 5 5 10 8 5 20 10 25 10 6 0 3
-5 -5 -10z m6651 -36 c46 -20 89 -41 94 -46 10 -9 -142 53 -173 72 -33 19 -4
9 79 -26z m-6691 22 c0 -2 -7 -7 -16 -10 -8 -3 -12 -2 -9 4 6 10 25 14 25 6z
m-70 -22 c0 -6 -65 -34 -77 -33 -4 0 10 9 32 19 48 22 45 21 45 14z m625 -14
c-3 -5 -12 -10 -18 -10 -7 0 -6 4 3 10 19 12 23 12 15 0z m-715 -24 c0 -2 -7
-7 -16 -10 -8 -3 -12 -2 -9 4 6 10 25 14 25 6z m6799 -42 c14 -12 -19 -1 -35
12 -18 14 -18 14 6 3 14 -6 27 -13 29 -15z m241 -10 c0 -2 -13 2 -30 11 -16 9
-30 18 -30 21 0 2 14 -2 30 -11 17 -9 30 -18 30 -21z m-6120 -24 c29 -15 13
-44 -33 -62 -69 -26 -129 -50 -409 -163 -251 -101 -269 -107 -298 -95 -16 7
-30 16 -30 20 0 5 36 22 80 39 43 17 94 37 112 45 18 8 143 58 278 111 135 54
249 101 255 106 12 12 22 11 45 -1z m-400 -20 c-8 -5 -19 -10 -25 -10 -5 0 -3
5 5 10 8 5 20 10 25 10 6 0 3 -5 -5 -10z m6105 -19 c-16 -4 -49 -18 -72 -30
-24 -12 -43 -17 -43 -12 0 13 91 50 120 50 23 -1 22 -2 -5 -8z m235 -16 c32
-18 25 -18 -25 0 -22 8 -31 14 -20 14 11 0 31 -6 45 -14z m255 -15 c-3 -5 -11
-10 -16 -10 -6 0 -7 5 -4 10 3 6 11 10 16 10 6 0 7 -4 4 -10z m-6750 -10 c-3
-5 -12 -10 -18 -10 -7 0 -6 4 3 10 19 12 23 12 15 0z m6550 -8 c-3 -3 -11 0
-18 7 -9 10 -8 11 6 5 10 -3 15 -9 12 -12z m124 -48 c14 -12 -19 -1 -35 12
-18 14 -18 14 6 3 14 -6 27 -13 29 -15z m-6799 6 c-8 -5 -19 -10 -25 -10 -5 0
-3 5 5 10 8 5 20 10 25 10 6 0 3 -5 -5 -10z m6076 -114 l88 -44 -91 -46 -92
-45 -98 45 -98 46 85 43 c47 24 93 44 102 44 9 1 56 -19 104 -43z m-5266 4
c-19 -11 -39 -19 -45 -19 -5 0 6 8 25 19 19 11 40 19 45 19 6 0 -6 -8 -25 -19z
m-120 -50 c-19 -11 -39 -19 -45 -19 -5 0 6 8 25 19 19 11 40 19 45 19 6 0 -6
-8 -25 -19z m185 -5 c-27 -14 -85 -39 -127 -56 -66 -27 -78 -35 -78 -55 0 -13
3 -24 8 -24 4 0 18 -10 32 -21 25 -20 24 -20 -17 1 -44 21 -56 48 -30 71 13
12 235 107 252 107 6 1 -12 -10 -40 -23z m-290 -36 c-27 -11 -63 -35 -80 -53
-19 -21 -58 -46 -104 -65 -98 -40 -103 -33 -7 9 44 19 82 43 91 57 17 25 107
73 135 72 8 0 -7 -9 -35 -20z m7 -92 c-30 -32 -28 -42 15 -72 21 -14 33 -25
28 -25 -19 0 -85 51 -85 65 0 7 12 23 26 34 35 28 43 27 16 -2z m3245 -22 c0
-8 -4 -12 -9 -9 -4 3 -8 9 -8 15 0 5 4 9 8 9 5 0 9 -7 9 -15z m-3557 -50 c-14
-8 -29 -14 -35 -14 -5 0 1 6 15 14 14 8 30 14 35 14 6 0 -1 -6 -15 -14z m-73
-1 c-3 -3 -12 -4 -19 -1 -8 3 -5 6 6 6 11 1 17 -2 13 -5z m613 -20 c0 -2 -9 0
-20 6 -11 6 -20 13 -20 16 0 2 9 0 20 -6 11 -6 20 -13 20 -16z m2935 -81 c-21
-38 -44 -75 -53 -83 -13 -14 12 35 60 118 36 60 30 33 -7 -35z m323 20 c5 -17
-26 -29 -40 -15 -6 6 -7 15 -3 22 9 14 37 9 43 -7z m-1193 -23 c-5 -8 -11 -8
-17 -2 -6 6 -7 16 -3 22 5 8 11 8 17 2 6 -6 7 -16 3 -22z m4035 -21 c0 -23
-28 -26 -37 -3 -6 16 15 37 29 28 4 -3 8 -14 8 -25z m-6490 -9 c0 -5 -4 -10
-10 -10 -5 0 -10 5 -10 10 0 6 5 10 10 10 6 0 10 -4 10 -10z m-1364 -41 c8
-14 -21 -43 -35 -35 -19 12 -13 46 8 46 11 0 23 -5 27 -11z m4509 1 c3 -5 1
-10 -4 -10 -6 0 -11 5 -11 10 0 6 2 10 4 10 3 0 8 -4 11 -10z m-1030 -50 c-3
-5 -10 -10 -16 -10 -5 0 -9 5 -9 10 0 6 7 10 16 10 8 0 12 -4 9 -10z m2015
-75 c0 -9 -7 -18 -16 -22 -18 -7 -39 11 -30 26 11 17 46 13 46 -4z m190 5 c0
-5 -4 -10 -10 -10 -5 0 -10 5 -10 10 0 6 5 10 10 10 6 0 10 -4 10 -10z m-1570
-24 c0 -3 -4 -8 -10 -11 -5 -3 -10 -1 -10 4 0 6 5 11 10 11 6 0 10 -2 10 -4z
m460 -14 c0 -4 -9 -8 -20 -9 -11 -1 -18 2 -15 8 7 11 35 12 35 1z m-4112 -41
c23 -14 10 -46 -19 -49 -32 -4 -45 21 -23 43 18 17 24 18 42 6z m1562 -151
c109 -65 120 -74 120 -100 0 -38 -41 -70 -89 -70 -26 0 -58 13 -111 46 -41 25
-92 55 -113 65 -50 26 -66 59 -43 94 41 62 81 56 236 -35z m-1435 -10 c0 -18
-6 -26 -23 -28 -13 -2 -25 3 -28 12 -10 26 4 48 28 44 17 -2 23 -10 23 -28z
m183 1 c21 -13 10 -46 -16 -49 -27 -4 -40 22 -22 43 14 17 20 18 38 6z m4880
-209 c-11 -13 -11 -14 1 -8 9 6 12 4 9 -5 -8 -23 -38 -23 -38 0 0 12 5 21 11
21 5 0 7 4 4 10 -3 6 1 7 10 4 13 -5 13 -9 3 -22z m-574 -74 c15 -24 -3 -52
-37 -56 -18 -2 -29 3 -37 18 -24 45 47 80 74 38z m-650 -19 c34 -16 38 -33 15
-63 -28 -35 -100 -37 -123 -4 -20 29 -20 34 4 58 22 22 66 26 104 9z m-1417
-108 c66 -31 92 -102 57 -157 -34 -50 -115 -72 -200 -53 -60 14 -89 42 -100
98 -19 92 133 162 243 112z m-2376 -82 c17 -33 -3 -69 -39 -69 -33 0 -52 16
-52 45 0 29 19 45 52 45 18 0 31 -7 39 -21z m3717 -1696 c5 39 17 34 20 -8 4
-54 -8 -63 -35 -29 l-23 29 0 -28 c0 -16 -4 -26 -10 -22 -11 7 -14 78 -3 89 4
3 16 -8 27 -26 l21 -33 3 28z m-928 18 c0 -5 -9 -7 -20 -4 -11 3 -20 1 -20 -5
0 -6 9 -14 20 -17 11 -3 20 -15 20 -25 0 -22 -37 -37 -53 -21 -8 8 -3 11 19
11 27 1 28 1 10 15 -10 8 -24 16 -29 18 -6 2 -8 11 -4 20 7 18 57 24 57 8z
m223 2 c-26 -5 -31 -23 -8 -23 8 0 15 -4 15 -10 0 -5 -7 -10 -15 -10 -8 0 -15
-4 -15 -10 0 -5 6 -10 14 -10 8 0 18 -4 21 -10 4 -6 -7 -10 -25 -10 -30 0 -31
1 -29 45 3 43 4 45 33 44 24 -1 26 -3 9 -6z m254 -38 c7 -21 10 -41 7 -44 -4
-3 -9 0 -11 7 -6 15 -35 16 -51 0 -16 -16 -15 -6 4 42 20 49 33 47 51 -5z
m211 1 c1 -19 -2 -37 -8 -41 -6 -4 -10 11 -10 40 0 53 15 54 18 1z m506 22
c15 -25 -3 -52 -38 -56 -24 -3 -26 -1 -26 38 0 39 2 41 26 38 15 -2 32 -11 38
-20z"/>
<path d="M3589 4460 c-47 -10 -103 -26 -123 -35 -87 -42 -114 -129 -55 -179
25 -22 41 -26 90 -26 124 0 200 70 213 198 8 73 13 72 -125 42z"/>
<path d="M3483 3730 c-58 -23 -75 -123 -28 -169 20 -20 35 -26 70 -26 57 0 94
34 102 93 5 37 2 45 -30 77 -36 36 -68 43 -114 25z"/>
<path d="M4064 3726 c-3 -8 -4 -29 -2 -48 2 -27 7 -34 30 -36 15 -2 36 2 48 8
27 14 27 65 1 80 -28 14 -71 12 -77 -4z"/>
<path d="M4610 3690 c0 -47 2 -50 26 -50 41 0 64 18 64 50 0 32 -23 50 -64 50
-24 0 -26 -3 -26 -50z"/>
<path d="M4220 295 c0 -8 5 -15 10 -15 6 0 10 7 10 15 0 8 -4 15 -10 15 -5 0
-10 -7 -10 -15z"/>
<path d="M4920 300 c0 -25 4 -31 18 -28 11 2 17 12 17 28 0 16 -6 26 -17 28
-14 3 -18 -3 -18 -28z"/>
</g>
</svg>
